<?xml version="1.0" standalone="no"?>
<!DOCTYPE svg PUBLIC "-//W3C//DTD SVG 20010904//EN"
 "http://www.w3.org/TR/2001/REC-SVG-20010904/DTD/svg10.dtd">
<svg version="1.0" xmlns="http://www.w3.org/2000/svg"
 width="437.000000pt" height="437.000000pt" viewBox="0 0 437.000000 437.000000"
 preserveAspectRatio="xMidYMid meet">
<metadata>
Created by potrace 1.14, written by Peter Selinger 2001-2017
</metadata>
<g transform="translate(0.000000,437.000000) scale(0.100000,-0.100000)"
fill="#000000" stroke="none">
<path d="M1625 3180 c-4 -6 5 -32 18 -59 66 -125 107 -268 107 -370 l0 -50
-42 -3 c-35 -2 -43 -7 -43 -22 0 -11 8 -20 18 -22 27 -4 27 -4 5 -62 -14 -37
-27 -56 -44 -62 -46 -18 -23 -44 39 -46 33 -1 40 3 54 30 37 73 110 111 198
104 91 -8 163 -75 172 -161 l5 -43 138 0 138 -1 6 45 c13 96 96 164 200 163
63 0 132 -41 163 -96 20 -37 26 -40 65 -41 24 0 48 3 55 8 16 12 6 35 -17 41
-30 8 -72 125 -43 120 15 -3 36 24 28 37 -3 5 -24 10 -45 10 -36 0 -39 2 -42
33 -4 43 16 170 37 232 9 28 34 84 55 126 44 90 41 108 -16 88 -82 -27 -165
-32 -224 -12 -38 13 -50 13 -94 1 -73 -21 -148 -22 -211 -3 -50 14 -60 14
-101 0 -57 -19 -130 -19 -205 0 -53 14 -64 14 -112 0 -59 -17 -131 -13 -197
10 -50 18 -57 18 -65 5z m645 -235 c0 -180 -6 -223 -27 -201 -10 10 -10 380 0
393 22 29 27 -9 27 -192z m-276 145 c3 -19 8 -46 11 -60 18 -84 26 -258 12
-267 -18 -11 -25 15 -30 122 -4 61 -9 121 -12 135 -19 83 -22 109 -11 113 16
6 24 -4 30 -43z m555 -5 c-14 -50 -19 -91 -26 -212 -4 -81 -9 -113 -18 -113
-7 0 -15 6 -17 13 -15 43 23 345 45 359 18 11 26 -12 16 -47z m-613 -376 c11
-18 -12 -25 -79 -25 -50 1 -62 4 -65 19 -3 15 5 17 67 17 40 0 73 -5 77 -11z
m194 -4 c0 -17 4 -16 -78 -20 -34 -1 -65 1 -68 6 -12 20 11 29 77 29 55 0 69
-3 69 -15z m196 4 c11 -18 -12 -25 -79 -25 -50 1 -62 4 -65 19 -3 15 5 17 67
17 40 0 73 -5 77 -11z m192 -6 c-3 -15 -15 -18 -71 -19 -37 0 -70 3 -73 8 -12
19 12 28 77 28 62 0 70 -2 67 -17z m197 -3 c0 -12 -14 -15 -70 -15 -59 0 -70
3 -73 18 -3 16 4 18 70 15 57 -2 73 -6 73 -18z m-547 -135 c-2 -30 -7 -55 -13
-55 -5 0 -11 25 -13 55 -2 45 0 55 13 55 13 0 15 -10 13 -55z m194 43 c8 -24
2 -103 -7 -101 -14 3 -21 40 -17 80 4 33 16 44 24 21z"/>
<path d="M919 2825 c0 -8 -1 -28 -1 -45 0 -92 -1 -90 36 -90 42 0 48 22 37
138 -2 18 -71 16 -72 -3z m48 -60 c0 -25 -4 -45 -9 -45 -4 0 -8 20 -8 45 0 25
4 45 9 45 5 0 9 -20 8 -45z"/>
<path d="M1055 2765 l0 -75 38 0 c40 0 54 24 16 27 -32 3 -36 14 -11 30 26 18
29 35 6 31 -10 -2 -18 5 -19 15 -3 16 6 21 33 18 6 -1 12 5 12 14 0 11 -10 15
-38 15 l-38 0 1 -75z"/>
<path d="M1192 2828 c-16 -21 -7 -62 16 -73 26 -12 37 -35 17 -35 -8 0 -15 5
-15 10 0 6 -7 10 -16 10 -11 0 -14 -5 -10 -16 3 -9 6 -20 6 -25 0 -6 15 -9 33
-7 30 3 32 6 35 46 3 39 1 42 -22 42 -16 0 -26 6 -26 15 0 8 5 15 10 15 6 0
10 -4 10 -10 0 -15 27 -12 33 4 12 30 -49 51 -71 24z"/>
<path d="M1323 2764 l0 -75 36 3 36 3 0 70 0 70 -36 2 -35 3 -1 -76z m47 1 c0
-25 -4 -45 -10 -45 -5 0 -10 20 -10 45 0 25 5 45 10 45 6 0 10 -20 10 -45z"/>
<path d="M1460 2765 l0 -75 38 0 c26 0 39 4 39 14 0 9 -9 13 -24 11 -17 -2
-23 3 -23 16 0 11 7 19 15 19 8 0 15 7 15 15 0 8 -7 15 -15 15 -25 0 -17 27
10 34 39 10 29 26 -15 26 l-40 0 0 -75z"/>
<path d="M2984 2818 c3 -13 6 -47 6 -75 0 -38 4 -53 14 -53 10 0 14 18 14 75
0 69 -1 75 -20 75 -16 0 -19 -5 -14 -22z"/>
<path d="M3096 2825 c-14 -36 -6 -65 19 -75 24 -9 35 -30 15 -30 -5 0 -10 5
-10 10 0 6 -7 10 -15 10 -16 0 -20 -18 -7 -36 4 -5 21 -10 37 -10 l30 1 0 70
0 70 -31 3 c-22 2 -33 -2 -38 -13z m44 -32 c0 -20 -3 -24 -11 -16 -7 7 -9 19
-6 27 10 24 17 19 17 -11z"/>
<path d="M3240 2824 c0 -10 6 -14 15 -11 24 10 26 -8 5 -67 -18 -53 -18 -56
-2 -56 13 0 24 18 40 67 11 36 19 70 16 75 -3 4 -21 8 -40 8 -25 0 -34 -4 -34
-16z"/>
<path d="M3397 2833 c-13 -12 -7 -43 8 -43 8 0 15 5 15 11 0 5 5 7 10 4 15 -9
12 -25 -5 -25 -8 0 -15 -7 -15 -15 0 -8 5 -14 11 -12 6 1 13 -6 14 -15 3 -19
-10 -24 -20 -8 -11 18 -26 10 -23 -12 3 -25 40 -37 61 -19 14 11 17 108 4 129
-9 13 -49 17 -60 5z"/>
<path d="M1869 2590 c-93 -26 -151 -140 -114 -226 15 -36 62 -83 95 -97 63
-26 159 0 198 53 19 26 39 89 37 115 -11 109 -114 183 -216 155z m24 -101 c-8
-8 -63 31 -63 45 0 4 15 13 33 21 l32 13 3 -35 c2 -20 0 -39 -5 -44z m90 59
c16 -12 15 -15 -8 -41 -31 -33 -45 -28 -45 19 0 37 20 46 53 22z m-129 -100
c-3 -4 -21 -8 -40 -8 -37 0 -43 14 -23 52 11 20 11 19 40 -8 15 -15 26 -31 23
-36z m186 43 c19 -37 12 -51 -24 -51 -45 0 -51 11 -23 43 27 31 33 32 47 8z
m-96 -37 c9 -8 16 -19 16 -22 0 -15 -32 -52 -45 -52 -17 0 -45 27 -45 45 0 7
7 21 16 29 8 9 22 16 29 16 7 0 21 -7 29 -16z m-90 -52 c7 -11 -43 -64 -54
-57 -4 3 -13 18 -18 35 -11 30 -11 30 28 30 21 0 41 -4 44 -8z m196 -10 c0
-10 -6 -26 -13 -36 -13 -18 -15 -17 -38 6 -36 38 -34 48 11 48 32 0 40 -4 40
-18z m-150 -68 c0 -37 -20 -46 -53 -21 -16 11 -15 14 8 40 31 33 45 28 45 -19z
m75 20 c29 -29 25 -39 -17 -49 -26 -7 -28 -5 -28 27 0 30 6 48 16 48 2 0 15
-12 29 -26z"/>
<path d="M1896 2431 c-7 -11 18 -33 27 -24 4 3 7 12 7 20 0 15 -26 18 -34 4z"/>
<path d="M2537 2585 c-48 -16 -74 -40 -98 -87 -24 -47 -24 -92 0 -143 24 -53
51 -76 108 -90 79 -20 143 5 191 76 31 45 27 130 -8 182 -42 61 -123 87 -193
62z m39 -57 c-2 -47 -16 -52 -48 -18 -25 27 -23 36 15 48 17 5 33 10 33 11 1
1 1 -18 0 -41z m86 18 c16 -12 15 -15 -11 -40 -32 -31 -44 -24 -45 26 -1 22 3
28 19 28 11 0 28 -7 37 -14z m-132 -93 c0 -9 -14 -13 -41 -13 -37 0 -40 2 -33
23 13 44 25 50 51 26 12 -13 23 -28 23 -36z m188 32 c18 -40 15 -45 -28 -45
-46 0 -51 13 -18 47 27 29 32 29 46 -2z m-91 -41 c12 -19 11 -24 -6 -45 -16
-21 -22 -22 -45 -11 -31 14 -36 55 -8 71 24 15 42 10 59 -15z m-97 -47 c0 -14
-47 -64 -53 -56 -5 7 -27 60 -27 64 0 3 18 5 40 5 27 0 40 -4 40 -13z m200 3
c0 -14 -22 -60 -30 -60 -9 0 -50 48 -50 60 0 6 18 10 40 10 22 0 40 -4 40 -10z
m-154 -74 c2 -36 1 -38 -24 -31 -43 10 -48 22 -22 50 31 33 44 28 46 -19z m75
-25 c-34 -16 -43 -12 -45 21 -4 43 14 52 46 21 l29 -28 -30 -14z"/>
<path d="M2572 2428 c7 -19 38 -22 38 -4 0 10 -9 16 -21 16 -12 0 -19 -5 -17
-12z"/>
<path d="M12 2138 l3 -31 2115 1 c1163 0 2127 1 2141 1 22 1 26 6 27 31 l1 30
-2145 0 -2145 0 3 -32z"/>
<path d="M3042 1989 c-69 -7 -96 -24 -111 -73 -15 -48 -9 -516 7 -544 26 -46
56 -56 169 -55 119 1 149 14 169 74 15 43 17 487 3 528 -6 16 -19 37 -29 46
-24 21 -120 32 -208 24z m106 -123 c4 -4 7 -100 7 -213 1 -186 -1 -205 -17
-214 -20 -11 -68 -4 -78 11 -5 8 -6 386 -1 412 3 15 74 18 89 4z"/>
<path d="M16 1953 c7 -35 8 -574 2 -617 -3 -18 3 -20 72 -20 l75 1 -4 34 c-2
19 -5 68 -5 109 l-1 75 76 5 c85 6 122 24 136 67 15 41 10 303 -6 331 -22 41
-68 52 -216 52 l-136 0 7 -37z m223 -92 c8 -12 7 -188 0 -196 -10 -9 -54 -12
-69 -5 -12 6 -15 27 -14 102 1 51 2 98 3 104 1 14 71 10 80 -5z"/>
<path d="M553 1980 c-12 -5 -30 -21 -40 -37 -16 -24 -18 -53 -18 -283 0 -281
4 -302 59 -329 39 -18 200 -20 242 -2 60 24 66 54 62 345 l-3 258 -33 29 c-32
28 -35 29 -140 28 -59 0 -117 -4 -129 -9z m151 -109 l25 -10 1 -205 c1 -187
-1 -206 -17 -214 -20 -10 -70 -9 -80 2 -8 7 -12 378 -5 408 4 15 16 22 44 27
4 0 18 -3 32 -8z"/>
<path d="M987 1653 l2 -337 55 1 c101 2 95 -1 86 38 -4 19 -8 83 -9 142 l0
108 29 -80 c16 -44 41 -109 55 -145 l25 -65 67 -1 68 0 0 338 0 338 -70 0 -71
0 3 -167 3 -168 -57 168 -57 167 -65 0 -66 0 2 -337z"/>
<path d="M1495 1652 l0 -337 136 1 c151 2 191 14 211 62 7 17 11 121 11 277 1
342 5 335 -227 335 l-131 0 0 -338z m212 216 c10 -8 13 -60 13 -219 0 -178 -2
-209 -15 -210 -8 -1 -27 -2 -42 -3 l-28 -1 -1 215 c-1 118 3 217 7 220 15 10
53 9 66 -2z"/>
<path d="M1975 1655 l0 -335 50 -1 c132 -2 287 0 289 3 2 1 6 27 10 56 6 46 4
52 -11 53 -10 0 -58 1 -108 2 l-90 2 -3 74 c-2 49 1 77 9 82 6 4 40 6 75 4
l64 -3 0 62 0 61 -72 0 -73 0 -3 74 c-2 46 1 77 8 81 6 4 51 6 101 5 49 -1 92
1 93 4 2 3 7 30 10 59 l6 52 -178 0 -177 0 0 -335z"/>
<path d="M2446 1968 c10 -29 12 -550 3 -603 -4 -22 -4 -42 1 -45 4 -3 39 -5
77 -5 66 1 68 1 66 25 -6 73 -8 202 -3 211 4 5 23 -32 44 -83 34 -85 43 -114
45 -143 1 -12 156 -13 167 -2 4 4 0 15 -9 25 -17 19 -107 205 -107 222 0 5 13
16 29 24 40 21 49 57 49 188 1 194 -16 208 -233 208 l-136 0 7 -22z m222 -103
c8 -8 12 -124 5 -153 -5 -20 -11 -23 -46 -20 l-41 3 1 84 c1 58 5 86 14 92 14
9 57 5 67 -6z"/>
<path d="M3463 1974 c-19 -10 -36 -28 -42 -46 -17 -47 -14 -243 4 -277 18 -36
64 -55 129 -53 72 2 79 -5 81 -78 1 -68 -12 -92 -48 -87 -40 5 -47 16 -47 71
l0 54 -37 -5 c-21 -2 -47 -6 -58 -8 -11 -2 -25 -4 -31 -4 -13 -1 -8 -125 8
-164 18 -45 59 -59 170 -60 154 0 176 27 174 213 -2 151 -25 180 -146 184 -30
1 -61 5 -67 9 -16 10 -18 133 -3 142 23 14 59 14 73 1 9 -9 13 -32 12 -65 l-2
-51 56 6 c31 4 62 7 69 7 10 0 13 17 11 66 -5 136 -33 161 -179 161 -66 0
-105 -5 -127 -16z"/>
<path d="M3959 1958 c0 -18 -2 -44 -5 -58 -4 -23 -35 -221 -50 -314 -3 -21 -7
-46 -9 -55 -1 -9 -8 -52 -15 -96 -7 -44 -16 -88 -21 -97 -11 -20 -12 -20 86
-21 l59 -1 1 54 0 55 53 1 52 1 0 -56 0 -56 68 1 c37 1 70 2 74 3 4 1 3 13 -2
29 -5 15 -14 61 -19 102 -6 41 -12 84 -15 95 -2 11 -7 40 -11 65 -4 25 -10 56
-12 70 -6 34 -10 56 -18 115 -3 28 -10 66 -14 85 -4 19 -7 52 -6 73 l1 37 -98
0 -98 0 -1 -32z m120 -337 c6 -36 9 -67 6 -69 -2 -3 -16 -6 -31 -8 -26 -2 -26
-2 -21 54 3 31 9 82 13 112 l8 55 7 -40 c4 -22 12 -69 18 -104z"/>
<path d="M4283 1978 c-30 -38 -12 -88 31 -88 64 0 73 92 10 98 -17 2 -35 -3
-41 -10z m65 -14 c13 -23 3 -52 -20 -59 -22 -8 -48 11 -48 34 0 38 51 56 68
25z"/>
<path d="M4301 1938 c2 -30 2 -31 6 -5 2 15 8 27 13 27 5 0 7 -6 4 -14 -3 -8
-1 -17 4 -20 5 -3 9 4 8 17 -1 12 -9 23 -18 25 -15 3 -18 -3 -17 -30z"/>
<path d="M10 1227 l0 -32 2138 1 c1175 1 2140 2 2145 3 4 0 7 14 7 30 l0 30
-2145 0 -2145 -1 0 -31z"/>
</g>
</svg>
